<svg width="25" height="24" viewBox="0 0 25 24" fill="none" xmlns="http://www.w3.org/2000/svg">
<path fill-rule="evenodd" clip-rule="evenodd" d="M19.8137 5.42916C20.6743 5.66531 21.352 6.3611 21.582 7.2447C22 8.84612 22 12.1875 22 12.1875C22 12.1875 22 15.5288 21.582 17.1303C21.352 18.0139 20.6743 18.7097 19.8137 18.946C18.2542 19.375 12 19.375 12 19.375C12 19.375 5.7458 19.375 4.18614 18.946C3.32557 18.7097 2.64784 18.0139 2.41784 17.1303C2 15.5288 2 12.1875 2 12.1875C2 12.1875 2 8.84612 2.41784 7.2447C2.64784 6.3611 3.32557 5.66531 4.18614 5.42916C5.7458 5 12 5 12 5C12 5 18.2542 5 19.8137 5.42916ZM10.125 9.37493V15.6249L15.125 12.5001L10.125 9.37493Z" fill="#CA2C50"/>
</svg>
