<?xml version="1.0" standalone="no"?>
<!DOCTYPE svg PUBLIC "-//W3C//DTD SVG 20010904//EN"
 "http://www.w3.org/TR/2001/REC-SVG-20010904/DTD/svg10.dtd">
<svg version="1.0" xmlns="http://www.w3.org/2000/svg"
 width="1104.000000pt" height="1104.000000pt" viewBox="0 0 1104.000000 1104.000000"
 preserveAspectRatio="xMidYMid meet">
<metadata>
Created by potrace 1.11, written by Peter Selinger 2001-2013
</metadata>
<g transform="translate(0.000000,1104.000000) scale(0.100000,-0.100000)"
fill="#000000" stroke="none">
<path d="M1338 9915 c-2 -1 -28 -5 -58 -9 -59 -6 -145 -22 -145 -26 0 -1 -11
-4 -25 -6 -69 -13 -342 -121 -360 -143 -3 -3 -22 -15 -43 -26 -21 -11 -47 -28
-58 -38 -10 -10 -19 -15 -19 -12 0 3 -8 -3 -18 -12 -10 -10 -29 -25 -43 -33
-13 -8 -73 -64 -134 -125 -94 -93 -150 -162 -200 -244 -5 -9 -12 -18 -15 -21
-23 -23 -109 -208 -140 -298 -56 -169 -74 -278 -74 -462 0 -91 3 -183 6 -205
4 -22 10 -60 13 -85 3 -25 9 -52 12 -60 3 -8 8 -24 10 -35 12 -67 53 -173 110
-290 56 -112 58 -115 66 -115 4 0 7 -6 7 -13 0 -7 8 -22 19 -33 10 -11 24 -30
30 -43 42 -77 340 -361 380 -361 5 0 11 -4 13 -10 5 -16 265 -150 291 -150 3
0 18 -5 34 -12 15 -6 33 -12 38 -14 6 -1 37 -9 70 -18 181 -49 424 -61 595
-30 14 2 41 7 60 10 103 17 241 65 378 130 71 34 244 146 280 182 10 9 33 31
52 47 118 104 244 270 320 419 47 94 90 202 89 223 0 4 6 10 15 13 12 4 2549
5 2577 1 4 -1 14 -25 23 -53 32 -98 170 -360 205 -388 3 -3 19 -23 36 -45 30
-41 163 -177 223 -228 50 -42 219 -150 282 -179 128 -60 272 -107 385 -125 17
-3 50 -9 75 -13 57 -11 328 -10 378 0 20 5 55 11 77 14 176 24 415 126 590
251 97 70 280 243 290 275 4 11 10 20 14 20 12 0 95 127 147 224 41 77 100
223 110 269 2 10 6 27 9 37 47 149 62 463 29 611 -3 13 -7 35 -9 49 -8 53 -45
190 -55 205 -4 6 -13 27 -19 47 -63 194 -270 475 -454 616 -26 20 -47 40 -47
44 0 4 -5 8 -11 8 -7 0 -37 16 -67 37 -81 54 -155 91 -256 130 -50 20 -95 36
-101 38 -5 1 -17 5 -25 8 -8 4 -26 8 -40 10 -14 2 -32 6 -40 10 -15 5 -56 12
-145 25 -67 9 -315 8 -390 -1 -67 -9 -234 -49 -280 -68 -16 -7 -36 -13 -43
-15 -33 -6 -234 -111 -302 -158 -89 -60 -95 -66 -208 -176 -96 -94 -132 -135
-132 -151 0 -5 -4 -7 -10 -4 -6 3 -10 2 -10 -3 0 -5 -22 -42 -48 -83 -56 -84
-132 -232 -139 -269 -2 -13 -8 -29 -12 -35 -8 -10 -33 -90 -49 -155 l-8 -35
-1262 -3 -1261 -2 -11 42 c-29 117 -51 176 -106 293 -37 78 -37 78 -111 190
-66 99 -129 173 -224 260 -76 70 -191 155 -209 155 -6 0 -10 5 -10 10 0 6 -6
10 -14 10 -8 0 -16 4 -18 8 -3 7 -93 52 -188 95 -45 20 -169 60 -195 63 -11 1
-20 3 -20 4 0 1 -7 3 -15 5 -42 8 -89 17 -120 21 -39 6 -337 14 -342 9z m287
-750 c28 -5 52 -9 55 -10 27 -5 150 -60 150 -67 0 -4 6 -8 14 -8 36 0 181
-132 240 -220 35 -51 84 -147 92 -180 2 -8 10 -40 19 -70 23 -81 21 -246 -4
-342 -21 -80 -67 -188 -85 -200 -6 -4 -7 -8 -3 -8 12 0 -78 -112 -124 -155
-71 -65 -203 -145 -267 -160 -9 -3 -44 -12 -77 -20 -91 -24 -234 -22 -335 4
-47 12 -90 27 -97 33 -7 6 -13 8 -13 5 0 -4 -26 8 -57 25 -203 110 -342 300
-384 523 -16 83 -8 268 12 307 5 9 9 25 9 34 0 25 84 194 109 221 12 12 21 25
21 29 0 9 132 134 141 134 4 0 14 6 21 13 28 28 95 60 213 102 42 16 263 34
285 24 8 -3 38 -10 65 -14z m5460 -9 c77 -25 175 -68 175 -78 0 -4 6 -8 13 -8
22 0 125 -88 179 -154 148 -179 204 -405 156 -626 -15 -72 -14 -68 -53 -157
-54 -121 -169 -250 -288 -321 -157 -95 -369 -129 -537 -87 -14 4 -32 8 -40 9
-8 1 -24 6 -35 10 -36 14 -50 19 -60 21 -33 7 -165 98 -221 152 -35 34 -64 64
-64 68 0 3 -8 15 -19 26 -22 24 -99 170 -106 201 -2 13 -11 52 -19 87 -39 177
3 396 107 552 104 156 275 274 452 312 89 20 289 15 360 -7z"/>
<path d="M4009 6965 c-7 -6 -35 -13 -89 -20 -19 -3 -59 -12 -89 -20 -30 -8
-58 -12 -63 -9 -4 3 -8 0 -8 -5 0 -6 -7 -11 -15 -11 -55 0 -323 -134 -435
-217 -111 -82 -228 -196 -295 -288 -17 -22 -32 -42 -35 -45 -15 -15 -60 -88
-60 -97 0 -6 -4 -13 -8 -15 -11 -4 -80 -143 -104 -208 -11 -30 -23 -64 -28
-75 -5 -11 -17 -49 -26 -85 -16 -65 -18 -74 -28 -140 -3 -19 -8 -46 -11 -60
-7 -31 -8 -270 -2 -325 13 -107 19 -146 38 -215 12 -41 22 -79 23 -85 5 -18
17 -50 27 -67 5 -10 9 -23 9 -29 0 -21 98 -207 148 -280 78 -115 181 -228 292
-321 25 -21 50 -42 57 -48 7 -5 15 -10 18 -10 7 0 67 -42 75 -51 3 -4 66 -36
140 -73 210 -102 407 -147 645 -148 143 0 265 16 385 52 25 7 50 14 55 15 6 1
19 5 30 9 11 4 34 13 50 18 80 29 270 129 318 168 55 45 76 60 80 60 4 0 17
10 29 23 13 12 41 38 63 57 22 20 65 65 95 100 30 36 57 67 60 70 15 15 110
162 133 205 89 171 145 350 164 530 16 139 2 414 -23 485 -3 8 -8 26 -10 40
-20 106 -114 321 -197 449 -85 131 -237 295 -337 364 -25 17 -47 33 -50 37
-22 25 -164 102 -307 166 -59 27 -211 69 -283 79 -14 2 -25 4 -25 5 0 11 -344
19 -372 9 -13 -5 -23 -4 -25 2 -2 6 -6 8 -9 4z m365 -760 c97 -27 220 -92 285
-150 122 -109 200 -235 240 -390 9 -34 24 -159 23 -190 -1 -40 -17 -131 -33
-186 -22 -75 -86 -209 -100 -209 -5 0 -9 -6 -9 -13 0 -16 -101 -123 -155 -164
-57 -43 -162 -97 -220 -113 -27 -8 -51 -13 -52 -12 -2 0 -21 -5 -43 -13 -23
-8 -38 -10 -35 -5 4 6 -3 7 -17 2 -25 -9 -116 -8 -191 2 -245 32 -480 222
-572 461 -11 28 -20 53 -21 58 -1 4 -2 8 -4 10 -2 3 -9 35 -17 77 -8 47 -8
174 -1 232 16 114 71 243 148 343 108 140 272 240 451 274 68 13 256 5 323
-14z"/>
<path d="M9446 6963 c-2 -2 -21 -6 -42 -8 -21 -3 -50 -7 -64 -9 -14 -3 -41 -7
-60 -10 -19 -3 -46 -10 -60 -16 -14 -5 -34 -11 -45 -13 -11 -1 -24 -5 -30 -8
-5 -4 -22 -9 -36 -12 -14 -4 -47 -16 -75 -29 -27 -12 -51 -22 -54 -23 -7 -1
-103 -49 -115 -57 -5 -4 -52 -35 -104 -69 -94 -62 -315 -265 -305 -281 3 -4 1
-8 -4 -8 -9 0 -92 -105 -92 -116 0 -3 -8 -18 -19 -32 -30 -43 -100 -181 -113
-223 -6 -22 -16 -39 -21 -39 -6 0 -7 -3 -4 -7 4 -3 2 -12 -4 -20 -6 -7 -9 -13
-6 -13 3 0 -3 -25 -13 -56 -11 -31 -17 -60 -14 -65 3 -5 1 -9 -4 -9 -5 0 -9
-6 -9 -12 0 -12 -7 -53 -18 -108 -23 -123 -21 -360 6 -490 20 -96 26 -121 47
-185 9 -27 17 -52 17 -55 5 -17 22 -56 60 -136 114 -239 279 -430 510 -589 73
-51 279 -155 305 -155 9 0 20 -4 25 -9 9 -8 152 -48 202 -57 13 -2 35 -6 51
-9 98 -17 249 -22 372 -12 85 8 104 11 215 37 28 6 57 13 65 15 8 2 41 13 72
25 32 12 61 22 65 22 19 2 225 115 288 159 269 187 456 441 569 773 l30 91 4
315 c3 228 0 330 -9 370 -7 30 -14 60 -15 66 -5 29 -50 147 -84 219 -117 253
-304 466 -550 628 -39 25 -203 106 -265 131 -48 18 -208 64 -250 70 -16 3 -48
8 -70 12 -42 7 -343 13 -349 7z m258 -741 c6 -3 24 -7 40 -8 52 -4 236 -78
236 -95 0 -5 7 -9 15 -9 8 0 15 -4 15 -10 0 -5 6 -10 13 -10 20 0 135 -118
180 -185 90 -132 128 -271 123 -442 -4 -104 -11 -147 -35 -205 -6 -16 -8 -28
-4 -28 3 0 -2 -9 -12 -20 -10 -11 -15 -20 -11 -20 12 0 -43 -89 -97 -158 -53
-68 -146 -148 -206 -179 -20 -10 -39 -22 -43 -28 -4 -5 -8 -6 -8 -1 0 5 -6 4
-12 -1 -13 -10 -102 -42 -136 -48 -9 -2 -17 -4 -17 -5 0 -12 -214 -15 -280 -5
-49 8 -146 41 -200 68 -48 24 -127 77 -137 91 -4 6 -8 8 -8 4 0 -20 -172 188
-176 212 0 3 -12 30 -26 60 -24 52 -39 97 -44 130 -1 8 -5 29 -9 45 -8 39 -9
167 -1 225 10 70 11 74 17 85 4 6 9 22 13 38 22 91 103 217 195 305 56 53 168
129 183 125 4 -2 8 2 8 7 0 6 3 9 8 8 4 -1 23 5 42 14 33 14 94 30 133 34 10
1 20 4 23 6 7 7 207 7 218 0z"/>
<path d="M1340 4009 c-30 -3 -77 -9 -105 -13 -58 -8 -201 -43 -230 -56 -11 -5
-45 -17 -75 -28 -106 -38 -289 -145 -388 -227 -98 -81 -302 -313 -302 -344 0
-6 -4 -11 -10 -11 -5 0 -10 -6 -10 -14 0 -8 -4 -16 -9 -18 -23 -9 -141 -287
-166 -393 -33 -140 -39 -203 -38 -380 1 -162 9 -232 43 -365 6 -25 13 -52 15
-60 6 -27 76 -194 87 -207 6 -7 8 -13 4 -13 -9 0 89 -156 149 -236 93 -124
234 -254 380 -349 75 -49 219 -119 307 -149 l76 -26 404 0 c435 0 439 1 571
58 26 12 51 22 55 23 27 5 193 106 254 153 14 12 41 32 60 46 56 42 198 192
246 260 26 36 49 67 52 70 9 9 30 44 44 75 8 17 18 34 23 38 4 5 8 12 8 15 1
4 9 22 19 40 9 19 33 73 51 120 l33 87 1296 3 c1135 2 1296 0 1296 -13 0 -13
20 -65 41 -107 5 -10 9 -25 9 -33 0 -8 4 -15 9 -15 8 0 23 -41 20 -56 0 -4 4
-10 9 -13 5 -3 17 -22 27 -41 20 -41 101 -164 130 -199 36 -44 109 -125 130
-144 11 -10 36 -33 55 -51 66 -61 177 -140 255 -182 23 -11 50 -26 60 -32 38
-21 134 -61 196 -81 59 -20 86 -21 465 -21 462 0 433 -4 642 92 60 28 196 109
200 120 2 4 10 8 17 8 7 0 15 3 17 8 2 4 23 23 48 42 49 37 240 228 240 240 0
4 9 18 20 31 11 13 23 29 28 34 25 31 112 185 112 199 0 9 4 16 8 16 4 0 13
15 20 33 29 71 71 193 76 217 3 14 12 57 20 95 34 157 37 402 6 540 -5 22 -7
41 -5 44 2 2 0 11 -5 21 -5 9 -11 28 -13 41 -7 34 -38 142 -46 154 -3 6 -6 12
-7 15 -10 50 -144 299 -166 308 -4 2 -8 8 -8 14 0 38 -264 305 -343 347 -15 8
-35 21 -45 30 -33 29 -203 119 -287 151 -69 27 -92 35 -110 37 -11 1 -43 9
-72 17 -162 46 -388 53 -603 20 -113 -18 -289 -75 -390 -127 -61 -32 -136 -73
-145 -79 -5 -4 -46 -34 -90 -66 -70 -51 -201 -174 -260 -244 -35 -42 -125
-176 -125 -186 0 -6 -4 -12 -8 -14 -10 -4 -89 -166 -107 -218 -1 -3 -4 -12 -8
-20 -10 -26 -40 -134 -44 -160 -3 -13 -6 -26 -8 -28 -2 -2 -570 -4 -1263 -5
l-1260 -2 -17 65 c-20 74 -55 180 -65 195 -4 6 -11 21 -15 35 -4 14 -19 42
-32 63 -13 20 -21 37 -18 37 6 0 -99 164 -118 186 -7 7 -23 28 -37 46 -35 45
-178 188 -219 218 -18 14 -42 33 -52 43 -11 9 -23 17 -28 17 -5 0 -16 6 -23
13 -19 19 -143 90 -211 121 -103 47 -254 93 -362 111 -16 3 -41 7 -55 10 -41
9 -270 12 -330 4z m295 -748 c28 -6 64 -16 80 -22 33 -12 157 -71 165 -79 3
-3 23 -19 45 -35 178 -132 288 -357 287 -584 -1 -53 -3 -106 -7 -118 -3 -13
-7 -31 -9 -41 -21 -93 -76 -215 -128 -282 -73 -95 -190 -188 -288 -229 -30
-13 -63 -27 -72 -32 -9 -5 -30 -11 -45 -13 -15 -3 -44 -8 -63 -12 -50 -10
-178 -11 -225 -3 -22 4 -53 9 -70 12 -66 11 -255 99 -255 118 0 5 -6 9 -12 9
-20 0 -141 129 -181 192 -35 54 -90 168 -82 168 2 0 -2 18 -10 40 -53 149 -26
379 62 540 58 106 136 194 228 257 75 51 176 97 244 109 13 3 40 9 60 13 48
11 214 6 276 -8z m5415 0 c121 -33 203 -72 285 -134 44 -34 145 -137 145 -149
0 -3 7 -13 15 -21 22 -23 81 -145 99 -207 28 -94 38 -223 24 -310 -17 -100
-21 -120 -27 -120 -4 0 -7 -8 -8 -17 -5 -63 -116 -232 -203 -309 -76 -68 -189
-136 -250 -149 -8 -2 -28 -8 -43 -14 -77 -30 -274 -33 -377 -6 -135 35 -275
117 -360 213 -64 71 -90 105 -90 118 0 7 -3 14 -7 16 -9 3 -67 124 -64 130 1
2 -3 17 -9 33 -6 17 -14 46 -18 65 -8 49 -8 237 1 282 16 87 62 193 122 283
31 47 157 175 172 175 3 0 14 6 22 14 22 20 153 84 187 92 116 25 160 31 244
29 52 -1 115 -8 140 -14z"/>
</g>
</svg>
