<svg width="72" height="72" viewBox="0 0 72 72" fill="none" xmlns="http://www.w3.org/2000/svg">
<path d="M3.05078 71H23.9793C25.1119 71 26.0301 70.0818 26.0301 68.9492V66.6644C26.0301 61.9234 23.38 57.7897 19.4836 55.6666C20.8674 54.1974 21.7182 52.2207 21.7182 50.0479C21.7182 45.5246 18.0383 41.8447 13.5151 41.8447C8.99189 41.8447 5.31197 45.5246 5.31197 50.0479C5.31197 52.2207 6.16277 54.1974 7.54664 55.6666C3.65002 57.7897 1 61.9234 1 66.6644V68.9492C1 70.0818 1.9182 71 3.05078 71ZM9.41354 50.0479C9.41354 47.7863 11.2535 45.9463 13.5151 45.9463C15.7767 45.9463 17.6167 47.7863 17.6167 50.0479C17.6167 52.3095 15.7767 54.1494 13.5151 54.1494C11.2535 54.1494 9.41354 52.3095 9.41354 50.0479ZM13.5151 58.251C17.9088 58.251 21.9285 61.6953 21.9285 66.8984H5.10156C5.10156 61.7224 9.09785 58.251 13.5151 58.251Z" fill="#CA2C50"/>
<path d="M64.4535 55.6666C65.8374 54.1974 66.6882 52.2207 66.6882 50.0479C66.6882 45.5246 63.0083 41.8447 58.4851 41.8447C53.9618 41.8447 50.2819 45.5246 50.2819 50.0479C50.2819 52.2207 51.1327 54.1974 52.5166 55.6666C48.6201 57.7897 45.9701 61.9232 45.9701 66.6644V68.9492C45.9701 70.0818 46.8883 71 48.0209 71H68.9492C70.0818 71 71 70.0818 71 68.9492V66.6644C71 61.9234 68.35 57.7897 64.4535 55.6666ZM54.3834 50.0479C54.3834 47.7863 56.2233 45.9463 58.4849 45.9463C60.7465 45.9463 62.5865 47.7863 62.5865 50.0479C62.5865 52.3095 60.7465 54.1494 58.4849 54.1494C56.2233 54.1494 54.3834 52.3095 54.3834 50.0479ZM66.8984 66.8984H50.0715C50.0715 61.7224 54.0678 58.251 58.4849 58.251C62.8785 58.251 66.8984 61.6949 66.8984 66.8984Z" fill="#CA2C50"/>
<path d="M48.515 28.1045V25.8196C48.515 21.0787 45.865 16.945 41.9685 14.8219C43.3523 13.3527 44.2031 11.376 44.2031 9.20312C44.2031 4.67992 40.5231 1 35.9999 1C31.4767 1 27.7968 4.67992 27.7968 9.20312C27.7968 11.376 28.6476 13.3527 30.0315 14.8219C26.135 16.945 23.485 21.0787 23.485 25.8196V28.1045C23.485 29.2371 24.4032 30.1553 25.5358 30.1553H46.4643C47.5968 30.1553 48.515 29.2371 48.515 28.1045ZM31.8984 9.20312C31.8984 6.94152 33.7383 5.10156 35.9999 5.10156C38.2615 5.10156 40.1015 6.94152 40.1015 9.20312C40.1015 11.4647 38.2615 13.3047 35.9999 13.3047C33.7383 13.3047 31.8984 11.4647 31.8984 9.20312ZM44.4135 26.0537H27.5864C27.5864 20.8777 31.5827 17.4062 35.9999 17.4062C40.3934 17.4062 44.4135 20.8502 44.4135 26.0537Z" fill="#CA2C50"/>
<path d="M44.285 52.823C41.6057 53.7032 38.7804 54.1493 35.888 54.1493C33.0969 54.1493 30.3637 53.7325 27.7646 52.9104C26.6844 52.5693 25.5322 53.1674 25.1909 54.2472C24.8493 55.327 25.4479 56.4794 26.5277 56.821C29.5273 57.7697 32.6766 58.2508 35.8879 58.2508C39.216 58.2508 42.4718 57.7356 45.565 56.7197C46.6411 56.3662 47.2268 55.2073 46.8734 54.1313C46.52 53.0553 45.3611 52.4693 44.285 52.823Z" fill="#CA2C50"/>
<path d="M17.096 17.9955C14.8311 20.1787 12.9057 22.7168 11.3732 25.5393C9.78505 28.4644 8.68419 31.5715 8.10122 34.7744C7.87277 36.0296 8.83595 37.1927 10.1212 37.1927C11.093 37.1927 11.9563 36.4989 12.1365 35.5089C12.6415 32.7344 13.5975 30.0386 14.9776 27.4965C16.3097 25.0433 17.98 22.8402 19.9424 20.9486C20.7578 20.1626 20.7818 18.8643 19.9958 18.0488C19.2096 17.2334 17.9115 17.2095 17.096 17.9955Z" fill="#CA2C50"/>
<path d="M54.9041 17.9955C54.0886 17.2094 52.7903 17.2335 52.0043 18.0488C51.2183 18.8644 51.2421 20.1627 52.0576 20.9487C54.0201 22.8403 55.6905 25.0432 57.0224 27.4965C58.4028 30.0388 59.3586 32.7346 59.8636 35.5089C60.0662 36.622 61.1326 37.3621 62.2484 37.1593C63.3626 36.9565 64.1016 35.8886 63.8989 34.7745C63.3159 31.5716 62.215 28.4645 60.6269 25.5394C59.0944 22.7168 57.169 20.1787 54.9041 17.9955Z" fill="#CA2C50"/>
</svg>
