<svg width="25" height="24" viewBox="0 0 25 24" fill="none" xmlns="http://www.w3.org/2000/svg">
<path d="M22 11.9932C21.9987 10.0826 21.4501 8.21239 20.4191 6.60385C19.3881 4.99531 17.9179 3.71578 16.1825 2.91668C14.447 2.11758 12.519 1.83236 10.6265 2.09478C8.73406 2.35719 6.95636 3.15625 5.50382 4.3974C4.05128 5.63854 2.9847 7.26983 2.43028 9.0982C1.87587 10.9266 1.85683 12.8755 2.37543 14.7144C2.89403 16.5532 3.92855 18.205 5.35657 19.4743C6.7846 20.7436 8.54634 21.5772 10.4333 21.8765V14.8765H7.93333V11.9932H10.4333V9.78485C10.4333 7.28485 11.9333 5.89319 14.2167 5.89319C14.9651 5.90404 15.7116 5.9709 16.45 6.09319V8.59319H15.1917C14.9766 8.5646 14.7578 8.58494 14.5517 8.65268C14.3455 8.72042 14.1573 8.83382 14.0011 8.98442C13.8449 9.13502 13.7247 9.31894 13.6495 9.52246C13.5743 9.72598 13.546 9.94386 13.5667 10.1599V12.0349H16.3333L15.8917 14.9182H13.5667V21.8765C15.9191 21.5034 18.061 20.3028 19.607 18.491C21.1531 16.6792 22.0016 14.375 22 11.9932Z" fill="#CA2C50"/>
</svg>
