<svg width="88" height="67" viewBox="0 0 88 67" fill="none" xmlns="http://www.w3.org/2000/svg">
<path d="M9.88123 56.1403C9.64152 55.2646 9.16588 53.5677 6.66513 53.5677C5.21172 53.5677 3.01496 54.6075 3.01496 58.6993C3.01496 61.2976 4.11296 63.7053 6.66513 63.7053C8.34464 63.7053 9.52279 62.6912 9.88123 60.9141H12.9C12.3018 64.0713 10.2435 66.2658 6.60993 66.2658C2.75785 66.2658 0 63.6463 0 58.6576C0 53.5851 2.9174 51.0125 6.64773 51.0125C10.9845 51.0125 12.7351 54.0055 12.9 56.1403H9.88123V56.1403Z" fill="#5D6163"/>
<path d="M16.595 59.2193L20.1438 55.1442H23.6004L19.8277 59.295L23.7017 65.8875H20.3246L17.7648 61.2732L16.595 62.4945V65.8875H13.7782V55.1442H16.595V59.2193V59.2193Z" fill="#5D6163"/>
<path d="M34.0066 60.4946C34.0066 64.3671 31.4091 66.1691 28.5332 66.1691C25.662 66.1691 23.0433 64.3936 23.0433 60.5196C23.0433 56.6425 25.662 54.8647 28.5332 54.8647C31.4091 54.8647 34.0066 56.6213 34.0066 60.4946ZM25.9395 60.4946C25.9395 61.8709 26.3569 63.7863 28.5332 63.7863C30.7103 63.7863 31.1096 61.8921 31.1096 60.5196C31.1096 59.1387 30.7103 57.2437 28.5332 57.2437C26.3569 57.2437 25.9395 59.1176 25.9395 60.4946Z" fill="#5D6163"/>
<path d="M44.5913 55.1433V65.8874H41.7744V57.4043H38.7602V60.7172C38.7602 64.8264 37.5231 66.1225 35.5441 66.1225C35.0518 66.1225 34.2472 66.0431 33.8306 65.8874V63.7867C33.8888 63.8282 34.2472 63.8668 34.6639 63.8668C35.5101 63.8668 35.9479 63.4494 35.9479 60.1781V55.1433H44.5913V55.1433Z" fill="#5D6163"/>
<path d="M48.8466 59.2193L52.3955 55.1442H55.8521L52.0756 59.295L55.9534 65.8875H52.5762L50.021 61.2732L48.8466 62.4945V65.8875H46.0298V55.1442H48.8466V59.2193V59.2193Z" fill="#5D6163"/>
<path d="M66.2581 60.4946C66.2581 64.3671 63.6651 66.1691 60.7893 66.1691C57.9135 66.1691 55.2993 64.3936 55.2993 60.5196C55.2993 56.6425 57.9135 54.8647 60.7893 54.8647C63.6651 54.8647 66.2581 56.6213 66.2581 60.4946ZM58.1963 60.4946C58.1963 61.8709 58.6129 63.7863 60.7893 63.7863C62.9565 63.7863 63.3702 61.8921 63.3702 60.5196C63.3702 59.1387 62.9565 57.2437 60.7893 57.2437C58.6129 57.2437 58.1963 59.1176 58.1963 60.4946Z" fill="#5D6163"/>
<path d="M67.1711 55.144H72.0213C74.4207 55.144 76.1759 56.1256 76.1759 57.9193C76.1759 59.1564 75.2964 59.9519 74.1757 60.234C75.2745 60.4964 76.495 61.1982 76.495 62.9548C76.495 64.9451 74.9886 65.8889 72.5552 65.8889H67.1711V55.144V55.144ZM69.9826 59.4937H71.8187C72.7533 59.4937 73.415 59.1194 73.415 58.277C73.415 57.4005 72.7783 57.0814 71.8398 57.0814H69.9826V59.4937V59.4937ZM69.9826 63.9523H72.0538C73.0944 63.9523 73.7386 63.6324 73.7386 62.5707C73.7386 61.6322 73.0603 61.1982 72.0213 61.1982H69.9826V63.9523V63.9523Z" fill="#5D6163"/>
<path d="M87.7692 60.4946C87.7692 64.3671 85.18 66.1691 82.3004 66.1691C79.4283 66.1691 76.8058 64.3936 76.8058 60.5196C76.8058 56.6425 79.4283 54.8647 82.3004 54.8647C85.18 54.8647 87.7692 56.6213 87.7692 60.4946ZM79.7028 60.4946C79.7028 61.8709 80.1271 63.7863 82.3004 63.7863C84.4767 63.7863 84.873 61.8921 84.873 60.5196C84.873 59.1387 84.4767 57.2437 82.3004 57.2437C80.1271 57.2437 79.7028 59.1176 79.7028 60.4946Z" fill="#5D6163"/>
<path d="M20.4752 48.5838C22.8754 48.5838 28.7858 48.1634 33.2028 44.9382V47.3845H42.1146L42.1236 36.6276L45.8449 32.7755L53.9453 47.3845H64.6379L52.3663 26.5104L64.3188 13.354H53.3728L42.1236 26.2623V1.46509H33.2028V5.38824C30.4865 2.47158 26.0832 0.265762 19.2169 0.265762C4.35457 0.265762 1.56419 9.30762 1.56419 14.3689C1.56419 21.3236 5.30282 25.1885 11.8152 26.7675L21.0484 29.0406C25.9183 30.2445 29.4006 31.1285 29.4006 34.7333C29.4006 39.5412 24.3364 40.6777 19.781 40.6777C11.4318 40.6777 10.0427 35.8101 10.0427 33.2179H0.869236C0.869236 38.909 3.77834 48.5838 20.4752 48.5838V48.5838ZM26.5505 21.2019L15.3603 18.4773C13.4577 18.0357 10.4843 17.2734 10.4843 13.6739C10.4843 9.56094 14.8506 8.16802 18.5182 8.16802C26.8666 8.16802 27.6288 13.0425 27.8769 15.1266H33.2028V23.686C31.2488 22.5449 28.9424 21.8038 26.5505 21.2019Z" fill="#5D6163"/>
</svg>
