<svg width="25" height="24" viewBox="0 0 25 24" fill="none" xmlns="http://www.w3.org/2000/svg">
<path fill-rule="evenodd" clip-rule="evenodd" d="M12.0009 2C9.28507 2 8.94424 2.01188 7.87756 2.06042C6.81297 2.10917 6.08629 2.27771 5.45045 2.52501C4.79274 2.78042 4.23481 3.1221 3.67898 3.67814C3.12272 4.23398 2.78105 4.7919 2.5248 5.44941C2.27688 6.08546 2.10813 6.81234 2.06021 7.87652C2.0125 8.9432 2 9.28424 2 12.0001C2 14.716 2.01208 15.0558 2.06042 16.1224C2.10938 17.187 2.27792 17.9137 2.52501 18.5495C2.78063 19.2073 3.1223 19.7652 3.67835 20.321C4.23398 20.8773 4.7919 21.2198 5.4492 21.4752C6.08546 21.7225 6.81234 21.891 7.87673 21.9398C8.94341 21.9883 9.28403 22.0002 11.9997 22.0002C14.7158 22.0002 15.0556 21.9883 16.1222 21.9398C17.1868 21.891 17.9143 21.7225 18.5506 21.4752C19.2081 21.2198 19.7652 20.8773 20.3208 20.321C20.8771 19.7652 21.2187 19.2073 21.475 18.5498C21.7208 17.9137 21.8896 17.1868 21.9396 16.1226C21.9875 15.056 22 14.716 22 12.0001C22 9.28424 21.9875 8.94341 21.9396 7.87673C21.8896 6.81213 21.7208 6.08546 21.475 5.44962C21.2187 4.7919 20.8771 4.23398 20.3208 3.67814C19.7646 3.12189 19.2083 2.78022 18.55 2.52501C17.9125 2.27771 17.1854 2.10917 16.1208 2.06042C15.0541 2.01188 14.7145 2 11.9978 2H12.0009ZM11.1038 3.80207C11.3701 3.80166 11.6671 3.80207 12.0009 3.80207C14.6709 3.80207 14.9874 3.81166 16.0418 3.85957C17.0168 3.90416 17.5459 4.06708 17.8985 4.20395C18.3651 4.38521 18.6978 4.60187 19.0476 4.95188C19.3976 5.30188 19.6143 5.63522 19.796 6.10189C19.9328 6.45398 20.096 6.98315 20.1404 7.95816C20.1883 9.01234 20.1987 9.32901 20.1987 11.9978C20.1987 14.6666 20.1883 14.9832 20.1404 16.0374C20.0958 17.0124 19.9328 17.5416 19.796 17.8937C19.6147 18.3604 19.3976 18.6926 19.0476 19.0424C18.6976 19.3924 18.3653 19.6091 17.8985 19.7904C17.5464 19.9279 17.0168 20.0904 16.0418 20.135C14.9876 20.1829 14.6709 20.1933 12.0009 20.1933C9.33066 20.1933 9.0142 20.1829 7.96002 20.135C6.98501 20.09 6.45584 19.927 6.10312 19.7902C5.63645 19.6089 5.30312 19.3922 4.95311 19.0422C4.60311 18.6922 4.38644 18.3597 4.20477 17.8928C4.0679 17.5408 3.90477 17.0116 3.86039 16.0366C3.81248 14.9824 3.80289 14.6657 3.80289 11.9953C3.80289 9.32484 3.81248 9.00984 3.86039 7.95566C3.90498 6.98065 4.0679 6.45148 4.20477 6.09897C4.38602 5.6323 4.60311 5.29896 4.95311 4.94896C5.30312 4.59896 5.63645 4.38229 6.10312 4.20062C6.45563 4.06312 6.98501 3.90062 7.96002 3.85582C8.88253 3.81416 9.24003 3.80166 11.1038 3.79957V3.80207ZM17.3389 5.46251C16.6764 5.46251 16.1389 5.99939 16.1389 6.66211C16.1389 7.32462 16.6764 7.86212 17.3389 7.86212C18.0014 7.86212 18.5389 7.32462 18.5389 6.66211C18.5389 5.9996 18.0014 5.46251 17.3389 5.46251ZM12.001 6.86461C9.16488 6.86461 6.86548 9.16401 6.86548 12.0001C6.86548 14.8361 9.16488 17.1345 12.001 17.1345C14.837 17.1345 17.1356 14.8361 17.1356 12.0001C17.1356 9.16401 14.837 6.86461 12.001 6.86461ZM12.0009 8.66671C13.8418 8.66671 15.3343 10.159 15.3343 12.0001C15.3343 13.8409 13.8418 15.3334 12.0009 15.3334C10.1599 15.3334 8.66755 13.8409 8.66755 12.0001C8.66755 10.159 10.1599 8.66671 12.0009 8.66671Z" fill="#CA2C50"/>
</svg>
