<svg width="72" height="72" viewBox="0 0 72 72" fill="none" xmlns="http://www.w3.org/2000/svg">
<g clip-path="url(#clip0)">
<path d="M36 23.1659C28.3719 23.1659 22.1658 29.3718 22.1658 37C22.1658 44.6283 28.3719 50.8342 36 50.8342C43.6281 50.8342 49.8341 44.6281 49.8341 37C49.8341 29.372 43.6281 23.1659 36 23.1659ZM36 46.7326C30.6335 46.7326 26.2674 42.3667 26.2674 37C26.2674 31.6334 30.6334 27.2675 36 27.2675C41.3666 27.2675 45.7326 31.6334 45.7326 37C45.7326 42.3667 41.3665 46.7326 36 46.7326Z" fill="#CA2C50"/>
<path d="M69.1754 28.7996L59.4432 27.7199C59.3386 27.4565 59.2295 27.1944 59.1157 26.9339L65.2173 19.2744C65.8685 18.457 65.8009 17.2806 65.0601 16.5432L56.3261 7.84814C55.5854 7.11082 54.4089 7.04848 53.5942 7.70322L45.9623 13.8392C45.736 13.7417 45.5087 13.6475 45.2801 13.5568L44.2004 3.82451C44.0851 2.786 43.2071 2 42.1621 2H29.8378C28.7927 2 27.9147 2.786 27.7995 3.82465L26.7198 13.5568C26.4563 13.6614 26.1943 13.7705 25.9338 13.8843L18.2744 7.78266C17.457 7.1316 16.2806 7.19914 15.5432 7.93988L6.84814 16.6739C6.11082 17.4145 6.04834 18.5912 6.70322 19.4058L12.8392 27.0377C12.7417 27.264 12.6475 27.4915 12.5568 27.7199L2.82451 28.7996C1.786 28.9149 1 29.7929 1 30.8379V43.1622C1 44.2073 1.786 45.0853 2.82465 45.2005L12.5568 46.2802C12.6614 46.5437 12.7705 46.8057 12.8843 47.0662L6.78266 54.7256C6.13146 55.543 6.19914 56.7194 6.93975 57.4568L15.6737 66.1519C16.4145 66.8893 17.5911 66.9517 18.4057 66.2968L26.0376 60.1608C26.2638 60.2585 26.4913 60.3525 26.7198 60.4432L27.7995 70.1755C27.9147 71.2143 28.7927 72.0001 29.8378 72.0001H42.1621C43.2071 72.0001 44.0851 71.2141 44.2004 70.1755L45.2801 60.4433C45.5435 60.3387 45.8056 60.2296 46.0661 60.1159L53.7256 66.2175C54.543 66.8687 55.7194 66.8011 56.4568 66.0602L65.1519 57.3262C65.8892 56.5856 65.9517 55.4089 65.2968 54.5943L59.1608 46.9624C59.2583 46.7362 59.3525 46.5088 59.4432 46.2802L69.1755 45.2005C70.2143 45.0853 71.0001 44.2073 71.0001 43.1622V30.8379C71 29.7929 70.214 28.9149 69.1754 28.7996ZM66.8984 41.3262L57.7291 42.3434C56.9357 42.4314 56.2655 42.9717 56.0113 43.7283C55.7129 44.6161 55.3484 45.4969 54.9279 46.3466C54.5737 47.0625 54.6672 47.9189 55.1676 48.5414L60.9498 55.7333L54.8453 61.8653L47.6274 56.1155C47.0027 55.618 46.146 55.5281 45.4317 55.8856C44.5556 56.3242 43.6461 56.7028 42.7286 57.0111C41.972 57.2654 41.4317 57.9356 41.3437 58.729L40.3262 67.8984H31.6738L30.6566 58.7291C30.5686 57.9357 30.0283 57.2655 29.2717 57.0113C28.3839 56.7129 27.5031 56.3484 26.6534 55.9279C25.9375 55.5735 25.0811 55.6672 24.4586 56.1676L17.2667 61.9498L11.1347 55.8453L16.8845 48.6274C17.3822 48.0027 17.4719 47.1459 17.1144 46.4317C16.6758 45.5556 16.2972 44.6461 15.9889 43.7286C15.7346 42.972 15.0644 42.4317 14.271 42.3437L5.10156 41.3262V32.6738L14.2709 31.6566C15.0643 31.5686 15.7345 31.0283 15.9888 30.2717C16.2869 29.3844 16.6514 28.5033 17.0721 27.6532C17.4263 26.9375 17.3328 26.0811 16.8324 25.4586L11.0503 18.2667L17.1548 12.1347L24.3726 17.8845C24.9973 18.382 25.854 18.4719 26.5683 18.1144C27.4444 17.6758 28.3539 17.2972 29.2714 16.9889C30.028 16.7346 30.5683 16.0644 30.6563 15.271L31.6738 6.10156H40.3262L41.3434 15.2709C41.4314 16.0643 41.9717 16.7345 42.7283 16.9888C43.6161 17.2871 44.4969 17.6516 45.3466 18.0721C46.0624 18.4265 46.9189 18.3328 47.5414 17.8324L54.7333 12.0502L60.8653 18.1547L55.1155 25.3726C54.6178 25.9973 54.5281 26.8541 54.8856 27.5683C55.3242 28.4444 55.7028 29.3539 56.0111 30.2714C56.2654 31.028 56.9356 31.5683 57.729 31.6563L66.8983 32.6735V41.3262H66.8984Z" fill="#CA2C50"/>
<path d="M36 39.0508C37.1326 39.0508 38.0508 38.1326 38.0508 37C38.0508 35.8674 37.1326 34.9492 36 34.9492C34.8674 34.9492 33.9492 35.8674 33.9492 37C33.9492 38.1326 34.8674 39.0508 36 39.0508Z" fill="#CA2C50"/>
</g>
<defs>
<clipPath id="clip0">
<rect width="70" height="70" fill="white" transform="translate(1 2)"/>
</clipPath>
</defs>
</svg>
