<svg width="72" height="72" viewBox="0 0 72 72" fill="none" xmlns="http://www.w3.org/2000/svg">
<g clip-path="url(#clip0)">
<path d="M6.97939 70.6605C7.76895 71.1481 3.9668 70.9672 62.7969 70.9672C67.3201 70.9672 71 67.289 71 62.7679V56.6184C71 55.4864 70.0818 54.5686 68.9492 54.5686H64.1641V9.57008C64.1641 4.84453 60.3178 1 55.5899 1H3.05078C1.9182 1 1 1.91779 1 3.04982V62.7679C1 64.958 1.85326 67.017 3.40242 68.5656C4.4032 69.566 5.6282 70.2809 6.97939 70.6605ZM66.8984 62.7679C66.8984 65.0284 65.0585 66.8675 62.7969 66.8675H16.3054C17.0051 65.6609 17.4062 64.2602 17.4062 62.7679V62.6628V58.6682H66.8984V62.7679ZM5.10156 5.09965H55.5899C58.056 5.09965 60.0625 7.10504 60.0625 9.57022V54.5687H15.3555C14.2229 54.5687 13.3047 55.4865 13.3047 56.6186V62.6629C13.3047 66.3833 8.88826 68.2514 6.30277 65.6669C5.52812 64.8925 5.10156 63.8629 5.10156 62.7679V5.09965Z" fill="#CA2C50"/>
<path d="M15.855 17.5352H49.3089C50.4415 17.5352 51.3597 16.6174 51.3597 15.4854C51.3597 14.3533 50.4415 13.4355 49.3089 13.4355H15.855C14.7225 13.4355 13.8043 14.3533 13.8043 15.4854C13.8043 16.6174 14.7225 17.5352 15.855 17.5352Z" fill="#CA2C50"/>
<path d="M15.855 27.101H49.3089C50.4415 27.101 51.3597 26.1832 51.3597 25.0512C51.3597 23.9191 50.4415 23.0013 49.3089 23.0013H15.855C14.7225 23.0013 13.8043 23.9191 13.8043 25.0512C13.8043 26.1833 14.7225 27.101 15.855 27.101Z" fill="#CA2C50"/>
<path d="M15.855 36.6669H49.3089C50.4415 36.6669 51.3597 35.7491 51.3597 34.6171C51.3597 33.4851 50.4415 32.5673 49.3089 32.5673H15.855C14.7225 32.5673 13.8043 33.4851 13.8043 34.6171C13.8043 35.7491 14.7225 36.6669 15.855 36.6669Z" fill="#CA2C50"/>
<path d="M15.855 46.2327H49.3089C50.4415 46.2327 51.3597 45.3149 51.3597 44.1829C51.3597 43.0508 50.4415 42.1331 49.3089 42.1331H15.855C14.7225 42.1331 13.8043 43.0508 13.8043 44.1829C13.8043 45.3149 14.7225 46.2327 15.855 46.2327Z" fill="#CA2C50"/>
</g>
<defs>
<clipPath id="clip0">
<rect width="70" height="70" fill="white" transform="translate(1 1)"/>
</clipPath>
</defs>
</svg>
