<svg width="72" height="72" viewBox="0 0 72 72" fill="none" xmlns="http://www.w3.org/2000/svg">
<path d="M36 1C16.6555 1 1 16.6539 1 36C1 55.3445 16.6539 71 36 71C55.3445 71 71 55.3461 71 36C71 16.6555 55.3461 1 36 1ZM61.8811 38.0508H66.8287C66.3691 45.0296 63.5831 51.3824 59.2396 56.3392L57.118 54.2178C56.3172 53.4167 55.0187 53.417 54.2178 54.2178C53.4169 55.0187 53.4169 56.3171 54.2178 57.118L56.3394 59.2395C51.3825 63.5831 45.0296 66.3691 38.0508 66.8287V63.2483C38.0508 62.1157 37.1326 61.1975 36 61.1975C34.8674 61.1975 33.9492 62.1157 33.9492 63.2483V66.8287C26.9704 66.3691 20.6176 63.5831 15.6608 59.2396L17.7822 57.118C18.5831 56.3172 18.5831 55.0187 17.7822 54.2178C16.9815 53.417 15.6829 53.417 14.882 54.2178L12.7605 56.3392C8.41685 51.3825 5.63094 45.0296 5.17129 38.0508H8.75168C9.88426 38.0508 10.8025 37.1326 10.8025 36C10.8025 34.8674 9.88426 33.9492 8.75168 33.9492H5.17129C5.63094 26.9704 8.41685 20.6176 12.7604 15.6608L14.8819 17.7822C15.6828 18.5831 16.9812 18.5831 17.7821 17.7822C18.5829 16.9815 18.5829 15.6829 17.7821 14.882L15.6606 12.7605C20.6175 8.41685 26.9704 5.63094 33.9492 5.17129V8.75168C33.9492 9.88426 34.8674 10.8025 36 10.8025C37.1326 10.8025 38.0508 9.88426 38.0508 8.75168V5.17129C45.0296 5.63094 51.3824 8.41685 56.3392 12.7604L54.2178 14.882C53.4169 15.6829 53.4169 16.9813 54.2178 17.7822C55.0184 18.5831 56.317 18.5833 57.118 17.7822L59.2395 15.6606C63.5831 20.6175 66.3691 26.9704 66.8287 33.9492H61.8811C60.7486 33.9492 59.8304 34.8674 59.8304 36C59.8304 37.1326 60.7486 38.0508 61.8811 38.0508Z" fill="#CA2C50"/>
<path d="M48.9406 33.9492H38.0508V16.9548C38.0508 15.8223 37.1326 14.9041 36 14.9041C34.8674 14.9041 33.9492 15.8223 33.9492 16.9548V36C33.9492 37.1326 34.8674 38.0508 36 38.0508H48.9406C50.0731 38.0508 50.9913 37.1326 50.9913 36C50.9913 34.8675 50.0733 33.9492 48.9406 33.9492Z" fill="#CA2C50"/>
</svg>
